<svg width="1045" height="1037" viewBox="0 0 1045 1037" fill="none" xmlns="http://www.w3.org/2000/svg">
<path d="M927.18 129.191C712.879 -76.5349 188.767 -17.1438 42.432 217.359C-163.906 547.378 433.679 1158.43 730.635 1015.77C1034.94 870.05 1152.5 346.55 927.18 129.191Z" fill="url(#paint0_angular_17_18)"/>
<path d="M541.441 0C257.343 0 -50.0219 389.41 14.8797 648.405C105.497 1013.32 924.12 1039.04 1023.31 742.696C1124.94 440.229 841.458 0 541.441 0Z" fill="url(#paint1_angular_17_18)"/>
<path d="M1039.23 533.908C1004.33 292.057 811.457 44.084 598.384 5.51041C558.586 3.06131 518.175 3.06141 478.377 6.73511C269.589 46.533 64.476 273.077 16.7178 484.926C60.19 641.669 183.87 803.311 325.307 910.46C518.175 966.79 753.903 955.16 899.013 876.785C974.32 780.657 1023.31 656.976 1039.23 533.908Z" fill="url(#paint2_radial_17_18)"/>
<path d="M274.976 706.887H503.194C510.486 706.887 516.438 700.937 516.438 693.645C516.438 686.353 510.486 680.403 503.194 680.403H274.976C266.19 680.403 258.988 673.201 258.988 664.419V303.968C258.988 295.185 266.19 287.984 274.976 287.984H801.156C809.942 287.984 817.144 295.185 817.144 303.968V468.806C817.144 476.098 823.097 482.048 830.388 482.048C837.68 482.048 843.632 476.098 843.632 468.806V303.968C843.632 280.602 824.525 261.5 801.156 261.5H274.976C251.607 261.5 232.5 280.602 232.5 303.968V664.419C232.5 687.785 251.607 706.887 274.976 706.887Z" fill="white" stroke="white" stroke-width="7"/>
<path d="M487.975 411.129C487.975 368.766 453.764 334.564 411.394 334.564C369.024 334.564 334.813 368.766 334.813 411.129C334.813 453.492 369.024 487.693 411.394 487.693C453.764 487.693 487.975 453.492 487.975 411.129ZM361.302 411.129C361.302 383.35 383.607 361.048 411.394 361.048C439.181 361.048 461.486 383.35 461.486 411.129C461.486 438.908 439.181 461.209 411.394 461.209C383.607 461.209 361.302 438.908 361.302 411.129Z" fill="white" stroke="white" stroke-width="7"/>
<path d="M305.58 581.613V620.58C305.58 627.872 311.533 633.822 318.824 633.822H503.962C511.253 633.822 517.206 627.872 517.206 620.58V581.613C517.206 536.814 480.559 500.177 435.753 500.177H387.033C342.226 500.177 305.58 536.814 305.58 581.613ZM387.033 526.661H435.753C465.976 526.661 490.717 551.398 490.717 581.613V607.338H332.068V581.613C332.068 551.398 356.809 526.661 387.033 526.661Z" fill="white" stroke="white" stroke-width="7"/>
<path d="M751.924 354.048H557.043C549.751 354.048 543.799 359.998 543.799 367.29C543.799 374.582 549.751 380.532 557.043 380.532H751.924C759.216 380.532 765.168 374.582 765.168 367.29C765.168 359.998 759.216 354.048 751.924 354.048Z" fill="white" stroke="white" stroke-width="7"/>
<path d="M751.924 422.242H557.043C549.751 422.242 543.799 428.192 543.799 435.484C543.799 442.776 549.751 448.726 557.043 448.726H751.924C759.216 448.726 765.168 442.776 765.168 435.484C765.168 428.192 759.216 422.242 751.924 422.242Z" fill="white" stroke="white" stroke-width="7"/>
<path d="M718.332 485.564C627.729 485.564 554.055 559.221 554.055 649.806C554.055 740.391 627.729 814.048 718.332 814.048C808.935 814.048 882.609 740.391 882.609 649.806C882.609 559.221 808.935 485.564 718.332 485.564ZM718.332 787.564C642.312 787.564 580.543 725.808 580.543 649.806C580.543 573.804 642.312 512.048 718.332 512.048C794.352 512.048 856.121 573.804 856.121 649.806C856.121 725.808 794.352 787.564 718.332 787.564Z" fill="white" stroke="white" stroke-width="7"/>
<path d="M638.525 666.543L699.292 727.294C701.876 729.878 705.194 731.242 708.587 731.242C711.98 731.242 715.298 729.878 717.883 727.294L822.632 622.568C827.896 617.305 827.896 609.243 822.632 603.979C817.367 598.716 809.305 598.716 804.041 603.979L708.587 699.412L657.116 647.954C651.851 642.69 643.789 642.69 638.525 647.954C633.26 653.217 633.26 661.279 638.525 666.543Z" fill="white" stroke="white" stroke-width="7"/>
<defs>
<radialGradient id="paint0_angular_17_18" cx="0" cy="0" r="1" gradientUnits="userSpaceOnUse" gradientTransform="translate(492.458 706.571) scale(519.213 519.213)">
<stop offset="0.523408" stop-color="#B21F1F"/>
<stop offset="0.833" stop-color="#1A2A6C"/>
</radialGradient>
<radialGradient id="paint1_angular_17_18" cx="0" cy="0" r="1" gradientUnits="userSpaceOnUse" gradientTransform="translate(310.5 827) rotate(-1.57821) scale(704.5 704.5)">
<stop offset="0.166" stop-color="#B21F1F"/>
<stop offset="0.833" stop-color="#FDBB2D"/>
</radialGradient>
<radialGradient id="paint2_radial_17_18" cx="0" cy="0" r="1" gradientUnits="userSpaceOnUse" gradientTransform="translate(169.176 808.209) scale(841.273 841.273)">
<stop stop-color="#FDBB2D"/>
<stop offset="0.4835" stop-color="#FDBB2D"/>
<stop offset="0.967" stop-color="#B21F1F"/>
</radialGradient>
</defs>
</svg>
