<svg width="12" height="8" viewBox="0 0 12 8" fill="none" xmlns="http://www.w3.org/2000/svg">
<path d="M11.28 1.27997C11.4124 1.13779 11.4846 0.949748 11.4811 0.755446C11.4777 0.561145 11.399 0.37576 11.2616 0.238348C11.1242 0.100935 10.9388 0.0222218 10.7445 0.0187936C10.5502 0.0153654 10.3621 0.0874893 10.22 0.219969L4.24997 6.18997L1.77997 3.71997C1.63779 3.58749 1.44975 3.51537 1.25545 3.51879C1.06114 3.52222 0.87576 3.60094 0.738347 3.73835C0.600934 3.87576 0.522222 4.06115 0.518794 4.25545C0.515365 4.44975 0.587488 4.63779 0.719968 4.77997L3.71997 7.77997C3.86059 7.92042 4.05122 7.99931 4.24997 7.99931C4.44872 7.99931 4.63934 7.92042 4.77997 7.77997L11.28 1.27997Z" fill="#F47216"/>
</svg>
